<svg height="512pt" viewBox="0 0 512 512.0012" width="512pt" xmlns="http://www.w3.org/2000/svg"><path d="m511.988281 15.355469c.007813-.289063.003907-.578125-.007812-.871094-.007813-.25-.011719-.5-.03125-.75-.03125-.375-.085938-.75-.148438-1.125-.027343-.195313-.054687-.390625-.09375-.582031-.09375-.476563-.214843-.949219-.355469-1.417969-.054687-.171875-.117187-.335937-.175781-.503906-.125-.355469-.257812-.710938-.40625-1.058594-.074219-.175781-.15625-.347656-.238281-.519531-.160156-.335938-.335938-.664063-.523438-.992188-.09375-.164062-.183593-.324218-.28125-.484375-.210937-.335937-.441406-.660156-.679687-.984375-.097656-.132812-.1875-.269531-.289063-.398437-.347656-.433594-.714843-.859375-1.113281-1.261719-.003906-.003906-.007812-.003906-.007812-.007812-.003907 0-.003907-.003907-.007813-.003907-.015625-.019531-.035156-.035156-.054687-.050781-.390625-.386719-.796875-.746094-1.21875-1.082031-.109375-.089844-.226563-.167969-.339844-.25-.347656-.265625-.703125-.511719-1.070313-.742188-.121093-.074219-.246093-.148437-.371093-.21875-.378907-.222656-.769531-.429687-1.160157-.617187-.113281-.050782-.222656-.105469-.335937-.15625-.457031-.203125-.921875-.382813-1.394531-.535156-.054688-.019532-.109375-.039063-.164063-.058594-1.089843-.339844-2.207031-.554688-3.335937-.6406252-.113282-.0117188-.230469-.0117188-.347656-.0195313-.449219-.0234375-.902344-.03125-1.351563-.015625-.128906.0078125-.257813.0117187-.386719.0195313-.503906.03125-1.007812.0820312-1.507812.1640622-.039063.007813-.078125.007813-.117188.015625l-.121094.019531c-.082031.015626-.160156.027344-.242187.042969l-101.808594 17.519531c-3.039062.523438-5.847656 1.972657-8.03125 4.148438l-206.304687 205.195312v.003907l-31.617188 31.449219-20.621094-20.511719 17.101563-17.011719c5.875-5.839844 5.902344-15.339844.058594-21.214844-5.84375-5.871094-15.339844-5.898437-21.214844-.054687l-27.796875 27.648437c-2.828125 2.8125-4.421875 6.640625-4.421875 10.632813 0 3.992187 1.59375 7.820312 4.421875 10.636719l40.152344 39.933593-86.003906 85.542969-8.933594-8.886719c-5.871094-5.839843-15.371094-5.816406-21.210938.058594-5.84375 5.871094-5.816406 15.371094.054688 21.210937l11.757812 11.695313-28.050781 54.9375c-2.964844 5.804687-1.839844 12.859375 2.78125 17.457031l37.175781 36.976563c2.886719 2.871093 6.714844 4.363281 10.582032 4.363281 2.53125 0 5.085937-.640625 7.398437-1.953125l52.527344-29.808594 11.4375 11.375c2.925781 2.910157 6.75 4.367188 10.578125 4.367188 3.851562 0 7.703125-1.476563 10.636718-4.421875 5.839844-5.875 5.816407-15.375-.058593-21.214844l-8.820313-8.773438 86.003906-85.539062 40.261719 40.046875c2.929688 2.910156 6.753907 4.363281 10.578125 4.363281 3.828125 0 7.652344-1.453125 10.582032-4.363281l27.792968-27.648437c5.875-5.839844 5.902344-15.339844.058594-21.210938-5.839844-5.875-15.339844-5.902344-21.214844-.058594l-17.21875 17.125-20.617187-20.507812 237.808593-236.535156c2.199219-2.1875 3.667969-5.003907 4.199219-8.0625l17.675781-101.617188c.03125-.175781.035157-.351562.0625-.527344.039063-.296875.074219-.59375.097657-.894531.019531-.261719.035156-.523437.039062-.785156zm-457.308593 462.976562-21.34375-21.226562 18.695312-36.621094 37.992188 37.789063zm59.929687-37.917969-45.3125-45.070312 86-85.542969 45.316406 45.070313zm53.007813-160.671874 20.980468-20.867188 63.203125 62.890625-20.96875 20.855469-60.886719-60.566406zm105.453124 20.867187-63.203124-62.890625 192.195312-191.167969 50.710938-8.726562-99.421876 98.902343c-5.875 5.839844-5.898437 15.339844-.058593 21.210938 2.933593 2.949219 6.78125 4.421875 10.636719 4.421875 3.824218 0 7.652343-1.453125 10.578124-4.363281l99.644532-99.121094-8.78125 50.460938zm0 0"/></svg>